REM DIRINDEX 1\2,1\3,1\4,1\5
REM DIRNAME folder01,folder02,folder03,folder04,folder05
TITLE ""
FILE "P1Q_j_1607-1620.mp3" MP3
  TRACK 01 AUDIO
    TITLE "3:cjc005_0170"
    INDEX 01 00:00:00
  TRACK 02 AUDIO
    TITLE "0:"
    INDEX 01 00:01:24
  TRACK 03 AUDIO
    TITLE "4:cjc005_0171"
    INDEX 01 00:01:52
  TRACK 04 AUDIO
    TITLE "0:"
    INDEX 01 00:03:41
  TRACK 05 AUDIO
    TITLE "5:cjc005_0172"
    INDEX 01 00:03:70
  TRACK 06 AUDIO
    TITLE "0:"
    INDEX 01 00:08:30
  TRACK 07 AUDIO
    TITLE "3:cjc005_0173"
    INDEX 01 00:09:10
  TRACK 08 AUDIO
    TITLE "0:"
    INDEX 01 00:10:31
  TRACK 09 AUDIO
    TITLE "4:cjc005_0174"
    INDEX 01 00:10:63
  TRACK 10 AUDIO
    TITLE "0:"
    INDEX 01 00:12:16
  TRACK 11 AUDIO
    TITLE "5:cjc005_0175"
    INDEX 01 00:12:38
  TRACK 12 AUDIO
    TITLE "0:"
    INDEX 01 00:16:10
  TRACK 13 AUDIO
    TITLE "3:cjc005_0176"
    INDEX 01 00:16:61
  TRACK 14 AUDIO
    TITLE "0:"
    INDEX 01 00:18:15
  TRACK 15 AUDIO
    TITLE "4:cjc005_0177"
    INDEX 01 00:18:39
  TRACK 16 AUDIO
    TITLE "0:"
    INDEX 01 00:19:48
  TRACK 17 AUDIO
    TITLE "5:cjc005_0178"
    INDEX 01 00:20:20
  TRACK 18 AUDIO
    TITLE "0:"
    INDEX 01 00:25:23
  TRACK 19 AUDIO
    TITLE "3:cjc005_0179"
    INDEX 01 00:26:03
  TRACK 20 AUDIO
    TITLE "0:"
    INDEX 01 00:27:34
  TRACK 21 AUDIO
    TITLE "4:cjc005_0180"
    INDEX 01 00:27:61
  TRACK 22 AUDIO
    TITLE "0:"
    INDEX 01 00:30:14
  TRACK 23 AUDIO
    TITLE "5:cjc005_0181"
    INDEX 01 00:30:40
  TRACK 24 AUDIO
    TITLE "0:"
    INDEX 01 00:33:44
  TRACK 25 AUDIO
    TITLE "3:cjc005_0182"
    INDEX 01 00:34:28
  TRACK 26 AUDIO
    TITLE "0:"
    INDEX 01 00:35:51
  TRACK 27 AUDIO
    TITLE "4:cjc005_0183"
    INDEX 01 00:36:07
  TRACK 28 AUDIO
    TITLE "0:"
    INDEX 01 00:37:28
  TRACK 29 AUDIO
    TITLE "5:cjc005_0184"
    INDEX 01 00:37:57
  TRACK 30 AUDIO
    TITLE "0:"
    INDEX 01 00:41:59
  TRACK 31 AUDIO
    TITLE "3:cjc005_0185"
    INDEX 01 00:42:45
  TRACK 32 AUDIO
    TITLE "0:"
    INDEX 01 00:43:70
  TRACK 33 AUDIO
    TITLE "4:cjc005_0186"
    INDEX 01 00:44:26
  TRACK 34 AUDIO
    TITLE "0:"
    INDEX 01 00:46:43
  TRACK 35 AUDIO
    TITLE "5:cjc005_0187"
    INDEX 01 00:46:70
  TRACK 36 AUDIO
    TITLE "0:"
    INDEX 01 00:50:37
  TRACK 37 AUDIO
    TITLE "3:cjc005_0188"
    INDEX 01 00:51:16
  TRACK 38 AUDIO
    TITLE "0:"
    INDEX 01 00:53:19
  TRACK 39 AUDIO
    TITLE "4:cjc005_0189"
    INDEX 01 00:53:53
  TRACK 40 AUDIO
    TITLE "0:"
    INDEX 01 00:56:20
  TRACK 41 AUDIO
    TITLE "5:cjc005_0190"
    INDEX 01 00:56:51
  TRACK 42 AUDIO
    TITLE "0:"
    INDEX 01 00:59:08
  TRACK 43 AUDIO
    TITLE "3:cjc005_0191"
    INDEX 01 00:59:59
  TRACK 44 AUDIO
    TITLE "0:"
    INDEX 01 01:01:11
  TRACK 45 AUDIO
    TITLE "4:cjc005_0192"
    INDEX 01 01:01:46
  TRACK 46 AUDIO
    TITLE "0:"
    INDEX 01 01:03:04
  TRACK 47 AUDIO
    TITLE "5:cjc005_0193"
    INDEX 01 01:03:31
  TRACK 48 AUDIO
    TITLE "0:"
    INDEX 01 01:06:69
  TRACK 49 AUDIO
    TITLE "3:cjc005_0194"
    INDEX 01 01:07:49
  TRACK 50 AUDIO
    TITLE "0:"
    INDEX 01 01:08:68
  TRACK 51 AUDIO
    TITLE "4:cjc005_0195"
    INDEX 01 01:09:24
  TRACK 52 AUDIO
    TITLE "0:"
    INDEX 01 01:10:35
  TRACK 53 AUDIO
    TITLE "5:cjc005_0196"
    INDEX 01 01:10:59
  TRACK 54 AUDIO
    TITLE "0:"
    INDEX 01 01:14:45
  TRACK 55 AUDIO
    TITLE "3:cjc005_0197"
    INDEX 01 01:15:35
  TRACK 56 AUDIO
    TITLE "0:"
    INDEX 01 01:16:50
  TRACK 57 AUDIO
    TITLE "4:cjc005_0198"
    INDEX 01 01:17:06
  TRACK 58 AUDIO
    TITLE "0:"
    INDEX 01 01:18:29
  TRACK 59 AUDIO
    TITLE "5:cjc005_0199"
    INDEX 01 01:18:53
  TRACK 60 AUDIO
    TITLE "0:"
    INDEX 01 01:21:12
  TRACK 61 AUDIO
    TITLE "3:cjc005_0200"
    INDEX 01 01:21:65
  TRACK 62 AUDIO
    TITLE "0:"
    INDEX 01 01:22:74
  TRACK 63 AUDIO
    TITLE "4:cjc005_0201"
    INDEX 01 01:23:30
  TRACK 64 AUDIO
    TITLE "0:"
    INDEX 01 01:24:20
  TRACK 65 AUDIO
    TITLE "5:cjc005_0202"
    INDEX 01 01:24:43
  TRACK 66 AUDIO
    TITLE "0:"
    INDEX 01 01:28:31
  TRACK 67 AUDIO
    TITLE "3:cjc005_0203"
    INDEX 01 01:29:09
  TRACK 68 AUDIO
    TITLE "0:"
    INDEX 01 01:30:24
  TRACK 69 AUDIO
    TITLE "4:cjc005_0204"
    INDEX 01 01:30:52
  TRACK 70 AUDIO
    TITLE "0:"
    INDEX 01 01:32:04
  TRACK 71 AUDIO
    TITLE "5:cjc005_0205"
    INDEX 01 01:32:29
  TRACK 72 AUDIO
    TITLE "0:"
    INDEX 01 01:36:37
  TRACK 73 AUDIO
    TITLE "3:cjc005_0206"
    INDEX 01 01:37:15
  TRACK 74 AUDIO
    TITLE "0:"
    INDEX 01 01:38:32
  TRACK 75 AUDIO
    TITLE "4:cjc005_0207"
    INDEX 01 01:38:61
  TRACK 76 AUDIO
    TITLE "0:"
    INDEX 01 01:40:19
  TRACK 77 AUDIO
    TITLE "5:cjc005_0208"
    INDEX 01 01:40:42
  TRACK 78 AUDIO
    TITLE "0:"
    INDEX 01 01:44:42
  TRACK 79 AUDIO
    TITLE "3:cjc005_0209"
    INDEX 01 01:45:26
  TRACK 80 AUDIO
    TITLE "0:"
    INDEX 01 01:46:51
  TRACK 81 AUDIO
    TITLE "4:cjc005_0210"
    INDEX 01 01:47:13
  TRACK 82 AUDIO
    TITLE "0:"
    INDEX 01 01:48:14
  TRACK 83 AUDIO
    TITLE "5:cjc005_0211"
    INDEX 01 01:48:40
  TRACK 84 AUDIO
    TITLE "0:"
    INDEX 01 01:51:68
